# xmcd
#
# Track frame offsets:
#	150
#	18449
#	33709
#	51782
#	70617
#	82990
#	97540
#	118688
#	135899
#	150484
#
# Disc length: 2193 seconds
#
# Revision: 0
# Processed by: cddbd v1.5PL3 Copyright (c) Steve Scherf et al.
# Submitted via: dBpowerAMP V4.0
#
DISCID=6a088f0a
DTITLE=Bellamy Brothers - Let The Love Flow
DYEAR=1900
DGENRE=Country
TTITLE0=Satin Sheets
TTITLE1=Nothin' Heavy
TTITLE2=Rainy, Windy, Sunshine (Roadeo Road)
TTITLE3=Let Fantasy Live
TTITLE4=Highway 2-18 (Hang on To Your Draems)
TTITLE5=Let The Love Flow
TTITLE6=Livin' In The West
TTITLE7=I'm The Only Saneman Left Alive
TTITLE8=Inside Of My Guitar
TTITLE9=Hell Cat
EXTD=
EXTT0=
EXTT1=
EXTT2=
EXTT3=
EXTT4=
EXTT5=
EXTT6=
EXTT7=
EXTT8=
EXTT9=
PLAYORDER=
